<?xml version="1.0" encoding="utf-8"?>
<!DOCTYPE svg PUBLIC "-//W3C//DTD SVG 1.1//EN" "http://www.w3.org/Graphics/SVG/1.1/DTD/svg11.dtd">
<svg version="1.1" xmlns="http://www.w3.org/2000/svg" xmlns:xlink="http://www.w3.org/1999/xlink" x="0" y="0" viewBox="0 0 1024 1024">

<symbol id="add" viewBox="0 0 32 32">
  <polygon points="28.5,12.194 19.805,12.194 19.805,3.5 12.195,3.5 12.195,12.194 3.5,12.194 3.5,19.806 12.195,19.806 12.195,28.5 19.805,28.5 19.805,19.806 28.5,19.806 "/>
</symbol>

<symbol id="remove" viewBox="0 0 32 32">
	<polygon points="26.92,8.872 23.129,5.081 16,13.521 8.871,5.081 5.08,8.872 13.521,16 5.08,23.129 8.871,26.919 16,18.479 23.129,26.919 26.92,23.129 18.479,16 	"/>
</symbol>

<symbol id="file-open" viewBox="0 0 1024 1024">
  <path d="M988.016,424.879c-16.092-21.037-40.152-34.1-67.115-36.768v-45.509c0-57.897-47.102-105-105-105 l-285.293,0v-17.994c0-57.897-47.103-105-105-105H207.069c-57.897,0-105,47.103-105,105v553.849 c0,37.621,19.892,70.678,49.706,89.222c15.653,10.209,34.369,15.778,54.264,15.778h1.03h607.802h1.029 c15.047,0,29.361-3.188,42.313-8.913c9.428-3.945,18.457-9.128,26.773-15.489c20.57-15.735,35.451-37.499,41.9-61.281l76.84-283.376 C1011.867,479.38,1006.141,448.574,988.016,424.879z M207.069,183.607h218.538c19.8,0,36,16.2,36,36v50.994c0,19.8,16.2,36,36,36 l318.293,0c19.801,0,36,16.2,36,36v44.992H301.722c-24.643,0-49.544,8.666-70.115,24.402 c-20.572,15.736-35.453,37.501-41.902,61.286l-18.636,68.727V219.607C171.069,199.807,187.27,183.607,207.069,183.607z M937.131,491.338l-76.838,283.373c-5.184,19.109-25.623,34.745-45.422,34.745H206.04c-19.8,0-31.76-15.636-26.579-34.745 l76.84-283.373c5.182-19.11,25.622-34.745,45.421-34.745h608.831C930.354,456.593,942.314,472.229,937.131,491.338z"/>
</symbol>

<symbol id="file-new" viewBox="0 0 1024 1024">
  <path d="M738.02,101.555h-273.49c-38.025,0-83.36,18.779-110.247,45.667L224.586,276.918 c-26.887,26.888-45.665,72.223-45.665,110.246v428.222c0,57.897,47.103,105,105,105H738.02c57.897,0,105-47.103,105-105V206.555 C843.02,148.657,795.917,101.555,738.02,101.555z M394.03,205.055v111.609H282.421L394.03,205.055z M774.02,815.386 c0,19.8-16.2,36-36,36H283.921c-19.8,0-36-16.2-36-36V387.164c0-0.494,0.012-0.997,0.026-1.5H428.53c19.054,0,34.5-15.446,34.5-34.5 V170.581c0.503-0.014,1.005-0.026,1.5-0.026h273.49c19.8,0,36,16.2,36,36V815.386z"/>
</symbol>

<symbol id="box-unchecked" viewBox="0 0 1024 1024">
  <path d="M731.078,256.923c19.8,0,36,16.2,36,36v438.154c0,19.8-16.2,36-36,36H292.922c-19.8,0-36-16.2-36-36
  	V292.923c0-19.8,16.2-36,36-36H731.078 M731.078,187.923H292.922c-57.897,0-105,47.103-105,105v438.154c0,57.897,47.103,105,105,105
  	h438.156c57.897,0,105-47.103,105-105V292.923C836.078,235.026,788.976,187.923,731.078,187.923L731.078,187.923z"/>
</symbol>

<symbol id="box-checked" viewBox="0 0 1024 1024">
  <path d="M1003.183,156.433c-13.475-13.474-35.318-13.474-48.791,0L834.725,276.101
  	c-8.075-49.928-51.475-88.178-103.646-88.178H292.922c-57.897,0-105,47.103-105,105v438.154c0,57.897,47.103,105,105,105h438.156
  	c57.897,0,105-47.103,105-105V372.329l167.104-167.105C1016.655,191.75,1016.655,169.906,1003.183,156.433z M767.078,731.077
  	c0,19.8-16.2,36-36,36H292.922c-19.8,0-36-16.2-36-36V292.923c0-19.8,16.2-36,36-36h438.156c19.8,0,36,16.2,36,36v50.824
  	L523.33,587.496L380.015,444.179c-13.474-13.473-35.318-13.474-48.791,0c-13.473,13.473-13.473,35.317,0,48.791l167.711,167.712
  	c6.47,6.471,15.245,10.105,24.396,10.105c9.149,0,17.925-3.635,24.396-10.104l219.353-219.354V731.077z"/>
</symbol>

<symbol id="gear" viewBox="0 0 1024 1024">
  <path d="M580.421,916.754H443.58c-19.054,0-34.5-15.446-34.5-34.5v-75.899c-11.05-3.865-21.874-8.354-32.432-13.451
  	l-53.682,53.682c-13.473,13.473-35.317,13.473-48.79,0l-96.761-96.761c-6.47-6.471-10.105-15.245-10.105-24.396
  	s3.635-17.925,10.104-24.396l53.683-53.682c-5.096-10.556-9.586-21.382-13.451-32.431h-75.9c-19.054,0-34.5-15.446-34.5-34.5V443.58
  	c0-19.054,15.446-34.5,34.5-34.5h75.9c3.864-11.049,8.355-21.876,13.451-32.432l-53.682-53.682
  	c-6.47-6.47-10.105-15.245-10.105-24.395s3.635-17.925,10.104-24.396l96.761-96.761c6.47-6.47,15.246-10.104,24.396-10.104
  	s17.925,3.635,24.395,10.105l53.682,53.682c10.556-5.096,21.383-9.587,32.432-13.451v-75.899c0-19.054,15.446-34.5,34.5-34.5
  	h136.841c19.054,0,34.5,15.446,34.5,34.5v75.899c11.049,3.865,21.875,8.355,32.431,13.451l53.682-53.682
  	c6.471-6.47,15.246-10.104,24.396-10.104c9.15,0,17.925,3.635,24.396,10.105l96.761,96.761c13.473,13.473,13.473,35.317,0,48.79
  	l-53.682,53.682c5.097,10.556,9.587,21.383,13.451,32.432h75.899c19.054,0,34.5,15.446,34.5,34.5v136.841
  	c0,19.054-15.446,34.5-34.5,34.5h-75.899c-3.865,11.051-8.354,21.874-13.451,32.431l53.682,53.682
  	c13.473,13.474,13.473,35.317,0,48.791l-96.761,96.761c-13.473,13.473-35.316,13.473-48.791,0l-53.682-53.682
  	c-10.557,5.098-21.38,9.586-32.431,13.451v75.899C614.921,901.308,599.475,916.754,580.421,916.754z M478.08,847.754h67.841v-67.006
  	c0-15.785,10.713-29.557,26.013-33.439c22.481-5.706,44.029-14.643,64.044-26.561c13.566-8.078,30.884-5.917,42.047,5.247
  	l47.404,47.404l47.971-47.971l-47.404-47.404c-11.163-11.164-13.325-28.481-5.247-42.047c11.918-20.015,20.854-41.563,26.561-64.044
  	c3.883-15.3,17.654-26.013,33.439-26.013h67.006V478.08h-67.006c-15.785,0-29.557-10.713-33.439-26.013
  	c-5.706-22.481-14.643-44.03-26.561-64.046c-8.078-13.565-5.916-30.882,5.247-42.045l47.404-47.404l-47.971-47.971l-47.404,47.404
  	c-11.165,11.163-28.48,13.325-42.046,5.248c-20.017-11.918-41.564-20.855-64.046-26.562c-15.299-3.883-26.012-17.655-26.012-33.439
  	v-67.005H478.08v67.005c0,15.785-10.713,29.556-26.012,33.439c-22.48,5.706-44.029,14.643-64.048,26.562
  	c-13.565,8.076-30.882,5.916-42.045-5.249l-47.404-47.404l-47.971,47.971l47.404,47.404c11.164,11.163,13.325,28.479,5.249,42.044
  	c-11.919,20.021-20.856,41.569-26.562,64.048c-3.883,15.3-17.654,26.013-33.439,26.013h-67.006v67.841h67.006
  	c15.785,0,29.556,10.713,33.439,26.012c5.706,22.48,14.643,44.028,26.562,64.046c8.077,13.565,5.916,30.882-5.248,42.046
  	l-47.404,47.404l47.971,47.971l47.404-47.404c11.163-11.162,28.478-13.324,42.044-5.249c20.023,11.921,41.572,20.857,64.048,26.563
  	c15.3,3.883,26.013,17.654,26.013,33.439V847.754z M512,618.669c-58.816,0-106.667-47.852-106.667-106.668
  	c0-58.816,47.851-106.667,106.667-106.667c58.817,0,106.668,47.851,106.668,106.667C618.669,570.817,570.817,618.669,512,618.669z
  	 M512,474.333c-20.77,0-37.667,16.897-37.667,37.667S491.23,549.669,512,549.669s37.668-16.898,37.668-37.668
  	S532.771,474.333,512,474.333z"/>
</symbol>

<symbol id="wrench" viewBox="0 0 1024 1024">
  <path d="M371.721,171.623c110.51,0,200.097,89.586,200.097,200.097c0,33.352-9.741,58.82-9.741,58.82
  	c-7.074,18.493-1.406,45.079,12.595,59.08L840.34,755.288c14.001,14.001,14.001,36.911,0,50.912l-34.139,34.138
  	c-7,7.001-16.229,10.501-25.456,10.501s-18.456-3.5-25.456-10.501L489.621,574.67c-9.908-9.907-26.116-15.643-41.3-15.643
  	c-6.273,0-12.373,0.979-17.78,3.048c0,0-25.468,9.741-58.82,9.741c-110.51,0-200.097-89.586-200.097-200.097
  	c0-16.251,0-16.251,0-16.251c1.738-9.586,6.938-14.551,13.652-14.551c5.198,0,11.303,2.975,17.412,9.084l90.294,90.296
  	c7.001,7.001,16.227,10.5,25.456,10.5c9.227,0,18.456-3.5,25.456-10.5l96.407-96.407c14.001-14,14.001-36.911,0-50.911
  	l-90.295-90.295c-14.001-14-11.542-27.979,5.465-31.063C355.471,171.623,355.471,171.623,371.721,171.623 M371.721,102.623h-16.25
  	c-4.129,0-8.25,0.371-12.312,1.107c-32.954,5.976-58.205,27.385-67.547,57.269c-9.675,30.948-0.103,64.771,25.605,90.479
  	l66.959,66.959l-49.737,49.737l-66.959-66.961c-18.889-18.89-42.399-29.293-66.199-29.295c-22.198,0-42.909,8.787-58.321,24.741
  	c-11.916,12.334-19.947,28.413-23.227,46.498c-0.737,4.063-1.107,8.184-1.107,12.313v16.251c0,36.297,7.125,71.546,21.175,104.766
  	c13.557,32.052,32.95,60.823,57.642,85.515c24.691,24.691,53.462,44.084,85.514,57.642c33.22,14.051,68.468,21.175,104.766,21.175
  	c33.788,0,61.335-7.062,75.067-11.398l259.71,259.71c19.804,19.805,46.172,30.711,74.246,30.711s54.442-10.906,74.246-30.711
  	l34.139-34.137c19.805-19.805,30.711-46.173,30.711-74.247c0-28.075-10.907-54.443-30.711-74.247L629.42,446.788
  	c4.337-13.733,11.398-41.281,11.398-75.068c0-36.297-7.124-71.546-21.176-104.766c-13.557-32.052-32.95-60.823-57.642-85.515
  	c-24.69-24.691-53.462-44.084-85.514-57.641C443.267,109.748,408.019,102.623,371.721,102.623L371.721,102.623z"/>
</symbol>

<symbol id="info" viewBox="0 0 1024 1024">
  <path d="M512,171.584c188.007,0,340.415,152.409,340.415,340.416c0,188.006-152.408,340.416-340.415,340.416
  	c-188.006,0-340.415-152.41-340.415-340.416C171.585,323.994,323.994,171.584,512,171.584 M512,102.584
  	c-55.24,0-108.865,10.834-159.384,32.202c-48.761,20.625-92.539,50.135-130.116,87.713s-67.088,81.355-87.713,130.116
  	C113.419,403.135,102.585,456.76,102.585,512s10.834,108.865,32.202,159.384c20.625,48.762,50.135,92.539,87.713,130.116
  	c37.578,37.578,81.355,67.089,130.116,87.714C403.135,910.581,456.76,921.416,512,921.416s108.865-10.835,159.385-32.202
  	c48.761-20.625,92.538-50.136,130.115-87.714c37.578-37.577,67.089-81.355,87.713-130.116
  	C910.581,620.865,921.415,567.24,921.415,512s-10.834-108.865-32.202-159.384c-20.624-48.762-50.135-92.539-87.713-130.117
  	c-37.577-37.578-81.354-67.088-130.115-87.713C620.865,113.419,567.24,102.584,512,102.584L512,102.584z M511.999,786.574
  	c-29.286,0-53.112-23.826-53.112-53.113c0-29.286,23.826-53.112,53.112-53.112c29.287,0,53.114,23.826,53.114,53.112
  	C565.113,762.748,541.286,786.574,511.999,786.574z M546.5,599.586v-39c0-11.06,2.78-13.459,3.967-14.483
  	c4.655-4.018,15.107-7.621,25.215-11.106c35.062-12.089,93.744-32.322,93.744-129.4c0-86.805-70.621-157.426-157.426-157.426
  	s-157.426,70.621-157.426,157.426c0,19.054,15.446,34.5,34.5,34.5s34.5-15.446,34.5-34.5c0-48.758,39.667-88.426,88.426-88.426
  	c48.758,0,88.426,39.667,88.426,88.426c0,47.882-15.786,53.325-47.236,64.169c-15.517,5.35-33.104,11.414-47.805,24.102
  	c-18.503,15.969-27.885,38.417-27.885,66.719v39c0,19.054,15.446,34.5,34.5,34.5S546.5,618.64,546.5,599.586z"/>
</symbol>

<symbol id="warning" viewBox="0 0 1024 1024">
  <path d="M511.997,172.229c13.275,0,26.549,9.78,36.621,29.339l296.555,575.974
  	c20.142,39.119,0.621,71.126-43.379,71.126H222.207c-44,0-63.521-32.007-43.379-71.126l296.548-575.974
  	C485.446,182.008,498.722,172.229,511.997,172.229 M511.997,103.229c0,0-0.001,0-0.001,0c-22.23,0-43.698,7.62-62.083,22.034
  	c-14.307,11.217-26.379,26.263-35.882,44.72L117.481,745.957c-9.592,18.629-14.811,37.688-15.513,56.648
  	c-0.812,21.919,4.578,43.046,15.587,61.097s27.325,32.515,47.185,41.826c17.179,8.056,36.513,12.14,57.467,12.14h579.586
  	c20.953,0,40.288-4.084,57.467-12.139c19.859-9.313,36.175-23.776,47.185-41.827c11.009-18.051,16.398-39.178,15.587-61.097
  	c-0.702-18.961-5.922-38.02-15.514-56.649L609.963,169.982c-9.503-18.457-21.575-33.503-35.882-44.72
  	C555.695,110.848,534.227,103.229,511.997,103.229L511.997,103.229z M511.999,680.349c-29.286,0-53.112,23.826-53.112,53.112
  	c0,29.287,23.826,53.113,53.112,53.113c29.287,0,53.114-23.826,53.114-53.113C565.113,704.175,541.286,680.349,511.999,680.349z
  	 M546.5,608.229V378.597c0-19.054-15.446-34.5-34.5-34.5s-34.5,15.446-34.5,34.5v229.632c0,19.054,15.446,34.5,34.5,34.5
  	S546.5,627.283,546.5,608.229z"/>
<symbol>

<symbol id="error" viewBox="0 0 1024 1024">
  <path d="M889.213,352.616c-20.624-48.762-50.135-92.539-87.713-130.117c-37.577-37.578-81.354-67.088-130.115-87.713
  	C620.865,113.419,567.24,102.584,512,102.584s-108.865,10.834-159.384,32.202c-48.761,20.625-92.539,50.135-130.116,87.713
  	s-67.088,81.355-87.713,130.116C113.419,403.135,102.585,456.76,102.585,512s10.834,108.865,32.202,159.384
  	c20.625,48.762,50.135,92.539,87.713,130.116c37.578,37.578,81.355,67.089,130.116,87.714
  	C403.135,910.581,456.76,921.416,512,921.416s108.865-10.835,159.385-32.202c48.761-20.625,92.538-50.136,130.115-87.714
  	c37.578-37.577,67.089-81.355,87.713-130.116C910.581,620.865,921.415,567.24,921.415,512S910.581,403.135,889.213,352.616z
  	 M512,852.416c-188.006,0-340.415-152.41-340.415-340.416c0-81.759,28.833-156.777,76.872-215.465l479.009,479.009
  	C668.777,823.583,593.759,852.416,512,852.416z M776.18,726.676L297.324,247.821c58.572-47.654,133.281-76.237,214.676-76.237
  	c188.007,0,340.415,152.409,340.415,340.416C852.415,593.395,823.833,668.104,776.18,726.676z"/>
</symbol>

</svg>
